<?xml version="1.0" encoding="utf-8"?>
<!-- Generator: Adobe Illustrator 23.0.1, SVG Export Plug-In . SVG Version: 6.00 Build 0)  -->
<svg version="1.1" id="Layer_1" xmlns="http://www.w3.org/2000/svg" xmlns:xlink="http://www.w3.org/1999/xlink" x="0px" y="0px"
	 viewBox="0 0 72 72" style="enable-background:new 0 0 72 72;" xml:space="preserve">
<style type="text/css">
	.st0{fill:#219ECA;}
	.st1{fill:#E8ECF0;}
</style>
<path class="st0" d="M57.2,68.1H14.8c-6.1,0-11-4.9-11-11V14.8c0-6.1,4.9-11,11-11h42.3c6.1,0,11,4.9,11,11v42.3
	C68.1,63.2,63.2,68.1,57.2,68.1z"/>
<g>
	<path class="st1" d="M29.6,32.2v16.2h-5V37c0-1.1,0-2.1-0.1-2.8c0-0.8-0.1-1.4-0.3-1.9c-0.2-0.5-0.4-0.8-0.7-1.1
		c-0.3-0.2-0.8-0.3-1.4-0.3c-0.5,0-1,0.1-1.4,0.4c-0.5,0.3-0.9,0.6-1.2,0.9v16.2h-5V25.6h5v2.5c0.8-1,1.7-1.8,2.4-2.3
		c0.8-0.6,1.6-0.8,2.6-0.8c1,0,1.9,0.3,2.7,1c0.8,0.7,1.4,1.7,1.8,3c1-1.2,1.9-2.2,2.9-2.9c0.9-0.7,1.8-1.1,2.7-1.1
		c1.7,0,2.9,0.7,3.8,2.2c0.9,1.5,1.3,3.6,1.3,6.4v14.9h-4.9V37c0-1.1,0-2.1,0-2.8c0-0.8-0.1-1.4-0.3-1.9c-0.2-0.5-0.4-0.8-0.7-1.1
		c-0.3-0.2-0.8-0.3-1.4-0.3c-0.4,0-0.8,0.1-1.2,0.3C30.7,31.4,30.2,31.7,29.6,32.2z"/>
	<polygon class="st1" points="49.1,50.6 57.4,21.4 53.2,21.4 44.9,50.6 	"/>
</g>
</svg>
