<?xml version="1.0" encoding="utf-8"?>
<!-- Generator: Adobe Illustrator 24.2.1, SVG Export Plug-In . SVG Version: 6.00 Build 0)  -->
<svg version="1.1" id="Layer_1" xmlns="http://www.w3.org/2000/svg" xmlns:xlink="http://www.w3.org/1999/xlink" x="0px" y="0px"
	 viewBox="0 0 72 72" style="enable-background:new 0 0 72 72;" xml:space="preserve">
<style type="text/css">
	.st0{fill:#219ECA;}
	.st1{fill:#E8ECF0;}
</style>
<path class="st0" d="M59.8,72H12.3C5.5,72,0,66.5,0,59.7V12.3C0,5.5,5.5,0,12.3,0h47.4C66.5,0,72,5.5,72,12.3v47.4
	C72,66.5,66.5,72,59.8,72z"/>
<g>
	<path class="st1" d="M28.8,31.8v18.1h-5.6V37.1c0-1.2,0-2.3-0.1-3.1c0-0.9-0.1-1.6-0.3-2.1c-0.2-0.6-0.4-0.9-0.8-1.2
		c-0.3-0.2-0.9-0.3-1.6-0.3c-0.6,0-1.1,0.1-1.6,0.4c-0.6,0.3-1,0.7-1.3,1v18.1H12V24.4h5.6v2.8c0.9-1.1,1.9-2,2.7-2.6
		c0.9-0.7,1.8-0.9,2.9-0.9s2.1,0.3,3,1.1c0.9,0.8,1.6,1.9,2,3.4c1.1-1.3,2.1-2.5,3.2-3.2c1-0.8,2-1.2,3-1.2c1.9,0,3.2,0.8,4.2,2.5
		c1,1.7,1.5,4,1.5,7.2V50h-5.5V37.1c0-1.2,0-2.3,0-3.1c0-0.9-0.1-1.6-0.3-2.1c-0.2-0.6-0.4-0.9-0.8-1.2c-0.3-0.2-0.9-0.3-1.6-0.3
		c-0.4,0-0.9,0.1-1.3,0.3C30.1,30.9,29.5,31.2,28.8,31.8z"/>
	<polygon class="st1" points="50.7,52.3 59.9,19.7 55.2,19.7 46,52.3 	"/>
</g>
</svg>
