<?xml version="1.0" standalone="no"?>
<!DOCTYPE svg PUBLIC "-//W3C//DTD SVG 20010904//EN"
 "http://www.w3.org/TR/2001/REC-SVG-20010904/DTD/svg10.dtd">
<svg version="1.0" xmlns="http://www.w3.org/2000/svg"
 width="700.000000pt" height="700.000000pt" viewBox="0 0 700.000000 700.000000"
 preserveAspectRatio="xMidYMid meet">
<metadata>
Created by potrace 1.11, written by Peter Selinger 2001-2013
</metadata>
<g transform="translate(0.000000,700.000000) scale(0.100000,-0.100000)"
fill="#000000" stroke="none">
<path d="M1010 6985 c-247 -39 -480 -158 -658 -337 -182 -181 -299 -414 -338
-668 -21 -142 -21 -4818 0 -4960 40 -261 149 -476 340 -666 149 -149 292 -237
488 -299 181 -57 68 -55 2663 -55 1531 0 2415 4 2460 10 161 23 296 69 430
147 107 61 154 98 253 196 180 177 299 412 338 667 21 142 21 4818 0 4960 -39
254 -156 487 -338 668 -181 182 -413 299 -668 338 -136 20 -4839 19 -4970 -1z
m4806 -1922 c-3 -10 -197 -697 -431 -1528 -234 -830 -432 -1534 -440 -1562
l-16 -53 -224 0 c-124 0 -225 3 -225 8 0 4 199 715 442 1579 l443 1573 228 0
c213 0 228 -1 223 -17z m-3413 -392 c135 -47 253 -174 313 -338 l27 -73 35 42
c87 104 222 233 298 284 108 72 177 96 276 96 229 -1 379 -131 475 -412 66
-194 66 -206 70 -1217 l4 -913 -270 0 -270 0 -3 858 -3 857 -23 57 c-27 66
-76 114 -127 124 -19 3 -70 4 -112 2 -85 -4 -168 -36 -250 -97 l-43 -31 0
-880 0 -880 -270 0 -270 0 0 673 c0 931 -11 1071 -91 1162 -40 45 -86 58 -195
54 -102 -5 -154 -25 -228 -90 l-46 -41 0 -879 0 -879 -265 0 -265 0 0 1240 0
1240 270 0 270 0 0 -137 0 -138 57 64 c64 71 216 201 266 228 61 31 112 42
213 42 75 1 115 -4 157 -18z"/>
</g>
</svg>
